<svg width="40" height="40" viewBox="0 0 40 40" fill="none" xmlns="http://www.w3.org/2000/svg">
<g id="inclusive">
<path id="Vector" d="M15.5847 8.8249C15.5402 8.55655 15.517 8.28098 15.517 8C15.517 5.23858 17.7556 3 20.5169 3C23.2784 3 25.5169 5.23858 25.5169 8C25.5169 8.28187 25.4936 8.55828 25.4489 8.82743L29.5014 7.31563C31.5939 6.53507 33.9156 7.65237 34.6109 9.77462C35.2424 11.7016 34.3044 13.7928 32.4453 14.6026L27.1836 16.8945V22.08L30.3221 31.1897C30.9631 33.0505 30.1014 35.0958 28.3219 35.9368C26.2689 36.907 23.8261 35.9042 23.0469 33.7713L20.5219 26.8593L18.0009 33.7757C17.2464 35.8457 14.9174 36.8675 12.8833 36.0212C10.9978 35.2365 10.0477 33.121 10.7138 31.1905L13.8503 22.1007V16.9013L8.3391 14.4749C6.36305 13.6049 5.46395 11.2996 6.32915 9.32145C7.16214 7.41692 9.33802 6.49505 11.2857 7.22148L15.5847 8.8249ZM18.0169 8C18.0169 9.02243 18.6308 9.90152 19.5099 10.2889C20.1478 10.5244 20.8474 10.5296 21.4879 10.3044C22.3864 9.92543 23.0169 9.03635 23.0169 8C23.0169 6.6193 21.8978 5.5 20.5169 5.5C19.1363 5.5 18.0169 6.6193 18.0169 8ZM18.5661 12.6051L10.412 9.56387C9.70772 9.30117 8.92089 9.63453 8.61965 10.3232C8.30679 11.0386 8.63192 11.8722 9.3465 12.1869L15.604 14.9419C16.0576 15.1416 16.3503 15.5904 16.3503 16.086V22.3103C16.3503 22.449 16.3272 22.5868 16.282 22.718L13.0771 32.006C12.8417 32.6882 13.1774 33.4357 13.8437 33.713C14.5625 34.012 15.3855 33.651 15.6522 32.9195L18.4019 25.3755C19.1228 23.3982 21.9188 23.3972 22.6409 25.374L25.3951 32.9137C25.6696 33.665 26.5304 34.0183 27.2536 33.6765C27.8806 33.3802 28.1843 32.6597 27.9584 32.004L24.7518 22.6965C24.7068 22.5655 24.6836 22.4278 24.6836 22.2893V16.0755C24.6836 15.5781 24.9786 15.1281 25.4344 14.9295L31.4469 12.3106C32.1236 12.0158 32.4651 11.2546 32.2353 10.5531C31.9821 9.78053 31.1369 9.37382 30.3753 9.65797L22.4069 12.6305C21.8239 12.8687 21.1858 13 20.5169 13C19.8249 13 19.1656 12.8594 18.5661 12.6051Z" fill="#A47551"/>
</g>
</svg>
